<?xml version="1.0" standalone="no"?>
<!DOCTYPE svg PUBLIC "-//W3C//DTD SVG 20010904//EN"
 "http://www.w3.org/TR/2001/REC-SVG-20010904/DTD/svg10.dtd">
<svg version="1.0" xmlns="http://www.w3.org/2000/svg"
 width="500.000000pt" height="500.000000pt" viewBox="0 0 500.000000 500.000000"
 preserveAspectRatio="xMidYMid meet">

<g transform="translate(0.000000,500.000000) scale(0.100000,-0.100000)"
fill="#581c87" stroke="none">
<path d="M0 2500 l0 -2500 2500 0 2500 0 0 2500 0 2500 -2500 0 -2500 0 0
-2500z m2929 954 l431 -305 0 -145 0 -144 -95 0 -94 0 -3 101 -3 102 -329 233
c-181 129 -333 234 -336 234 -4 0 -155 -105 -336 -234 l-329 -233 -3 -312 -2
-311 440 0 440 0 0 -95 0 -95 -535 0 -535 0 2 451 3 452 425 303 c234 166 426
303 427 303 1 1 196 -137 432 -305z m419 -1161 l-3 -447 -165 -118 c-91 -65
-202 -144 -247 -175 -45 -32 -159 -113 -254 -181 -94 -68 -177 -122 -184 -120
-7 2 -199 136 -428 298 l-417 295 0 148 0 147 85 0 84 0 3 -102 3 -102 250
-178 c138 -98 285 -203 327 -233 42 -30 83 -57 90 -60 7 -2 164 103 348 234
l335 238 0 314 0 314 -447 3 -448 2 0 85 0 85 535 0 535 0 -2 -447z"/>
</g>
</svg>
